#!OML:ASF E:\emotionWalksFemale\Project 1\Capture day 1\Session 1\Female1.ASF
:FULLY-SPECIFIED
:DEGREES
2125
root 10.4532 14.92 -1.25871 361.001 5.20371 2.65489
lowerback 15.0501 1.10005 0.081239
upperback -0.268574 1.42796 -0.546768
thorax -8.7371 0.67072 -0.950967
lowerneck -4.48808 -5.18077 -6.04197
upperneck -1.259 -6.62341 3.19027
head 0.691856 -3.26636 1.8801
rclavicle -1.74682e-014 -8.74653e-015
rhumerus 1.78023 11.4991 -73.7447
rradius 25.3327
rwrist 35.7692
rhand -3.63943 -55.367
rfingers 7.12502
rthumb 22.1002 995.876
lclavicle -1.74682e-014 -8.74653e-015
lhumerus -9.79706 5.65855 69.2396
lradius 31.9275
lwrist -25.3688
lhand -6.48386 -30.552
lfingers 7.12502
lthumb 19.3672 -1.49645
rfemur -24.9565 5.03231 23.094
rtibia 48.2568
rfoot -20.0315 -20.4934
rtoes -1.34324
lfemur -24.1861 -8.39159 -18.6137
ltibia 48.285
lfoot -24.7931 -11.0343
ltoes -26.3258
2126
root 10.43 14.91 -1.22837 360.806 5.55612 2.8555
lowerback 15.188 1.19334 -0.174145
upperback -0.265475 1.5078 -0.526664
thorax -8.81804 0.720412 -0.806048
lowerneck -4.54963 -5.35915 -6.14529
upperneck -1.01369 -6.85321 3.08003
head 0.790297 -3.38376 1.8508
rclavicle 1.25731e-014 -1.15295e-014
rhumerus 1.15809 10.8941 -73.7885
rradius 25.8889
rwrist 35.0072
rhand -2.6262 -55.2935
rfingers 7.12502
rthumb 23.0727 996.068
lclavicle 1.25731e-014 -1.15295e-014
lhumerus -8.4326 3.28477 70.0848
lradius 32.1023
lwrist -25.3503
lhand -6.78424 -30.8888
lfingers 7.12502
lthumb 19.0783 -1.80451
rfemur -24.6965 4.73239 23.0129
rtibia 48.5181
rfoot -20.1209 -20.6069
rtoes -1.80754
lfemur -23.754 -8.36736 -18.848
ltibia 48.1844
lfoot -25.0503 -10.9869
ltoes -26.7787
2127
root 10.4104 14.8995 -1.19934 360.592 5.91263 3.03123
lowerback 15.4036 1.21876 -0.417332
upperback -0.27021 1.49819 -0.507085
thorax -8.95259 0.726402 -0.650671
lowerneck -4.46599 -5.36778 -6.20996
upperneck -1.01144 -6.86634 3.04777
head 0.778467 -3.39102 1.85345
rclavicle -1.55052e-014 1.03368e-014
rhumerus 0.697262 11.01 -73.7972
rradius 26.3714
rwrist 33.3646
rhand -2.14141 -54.9027
rfingers 7.12502
rthumb 23.5378 996.518
lclavicle -1.55052e-014 1.03368e-014
lhumerus -7.1532 1.52884 70.8676
lradius 32.0558
lwrist -26.0163
lhand -7.38502 -31.4834
lfingers 7.12502
lthumb 18.5005 -2.34314
rfemur -24.4499 4.52418 22.928
rtibia 48.8475
rfoot -20.4089 -20.6963
rtoes -1.38013
lfemur -23.3379 -8.32876 -19.0912
ltibia 48.1548
lfoot -25.0362 -11.1371
ltoes -25.6836
2128
root 10.3902 14.8906 -1.16858 360.46 6.29968 3.10088
lowerback 15.5087 1.21431 -0.59849
upperback -0.368125 1.46319 -0.450782
thorax -9.12565 0.718694 -0.4838
lowerneck -4.32091 -5.34143 -6.38165
upperneck -0.912145 -6.83401 3.1547
head 0.795224 -3.37568 1.92174
rclavicle -1.5207e-014 -3.97569e-016
rhumerus 0.229522 11.4681 -73.7428
rradius 26.7453
rwrist 31.3573
rhand -1.76137 -54.577
rfingers 7.12502
rthumb 23.9022 996.891
lclavicle -1.5207e-014 -3.97569e-016
lhumerus -6.23989 -0.331852 71.551
lradius 32.3045
lwrist -26.256
lhand -7.32878 -32.057
lfingers 7.12502
lthumb 18.5546 -2.92194
rfemur -24.2524 4.3414 22.9668
rtibia 49.1745
rfoot -20.7841 -20.8718
rtoes -0.854813
lfemur -23.0898 -8.27015 -19.2134
ltibia 48.2014
lfoot -25.0267 -11.3543
ltoes -23.8081
2129
root 10.3749 14.8785 -1.13783 360.464 6.73507 3.20952
lowerback 15.4384 1.21246 -0.700237
upperback -0.501785 1.44524 -0.419561
thorax -9.23551 0.715626 -0.389064
lowerneck -4.29888 -5.43256 -6.46966
upperneck -0.652184 -6.95406 3.09964
head 0.881141 -3.43902 1.91289
rclavicle -1.881e-014 1.07344e-014
rhumerus -0.235352 11.6071 -73.6344
rradius 27.1272
rwrist 29.635
rhand -1.07642 -54.6727
rfingers 7.12502
rthumb 24.559 996.882
lclavicle -1.881e-014 1.07344e-014
lhumerus -5.37826 -2.54472 72.1338
lradius 32.8598
lwrist -25.65
lhand -6.44101 -32.1444
lfingers 7.12502
lthumb 19.4084 -3.09303
rfemur -24.1894 4.00444 22.9334
rtibia 49.448
rfoot -21.0608 -21.0176
rtoes -1.10711
lfemur -23.0523 -8.28043 -19.3751
ltibia 48.3136
lfoot -25.1394 -11.4777
ltoes -22.8187
2130
root 10.3663 14.867 -1.10582 360.486 7.22551 3.30679
lowerback 15.1876 1.1617 -0.682988
upperback -0.541857 1.38495 -0.405557
thorax -9.13636 0.686862 -0.364855
lowerneck -4.389 -5.54154 -6.35672
upperneck -0.412172 -7.09677 2.82047
head 0.962497 -3.5152 1.79285
rclavicle -1.71949e-014 5.1684e-015
rhumerus -0.556363 11.5017 -73.5379
rradius 27.5507
rwrist 28.2876
rhand -0.633948 -54.837
rfingers 7.12502
rthumb 24.983 996.776
lclavicle -1.71949e-014 5.1684e-015
lhumerus -4.33285 -4.44143 72.7509
lradius 33.4421
lwrist -24.8448
lhand -5.22703 -31.5194
lfingers 7.12502
lthumb 20.5753 -2.58984
rfemur -24.0986 3.60939 22.8747
rtibia 49.6349
rfoot -21.3613 -21.177
rtoes -1.45566
lfemur -23.0487 -8.40355 -19.5158
ltibia 48.455
lfoot -24.9215 -11.9965
ltoes -19.7472
2131
root 10.3584 14.8599 -1.07207 360.348 7.77363 3.31057
lowerback 14.9728 1.04365 -0.629578
upperback -0.530332 1.24782 -0.321006
thorax -9.002 0.621277 -0.268478
lowerneck -4.55063 -5.50948 -6.4005
upperneck -0.0722287 -7.04044 2.67896
head 1.09167 -3.4916 1.74832
rclavicle -1.23743e-014 -7.95139e-015
rhumerus -0.870323 11.6558 -73.4042
rradius 27.9912
rwrist 27.0582
rhand -1.17306 -54.7314
rfingers 7.12502
rthumb 24.4663 996.811
lclavicle -1.23743e-014 -7.95139e-015
lhumerus -3.18187 -5.86864 73.3608
lradius 33.5526
lwrist -24.4566
lhand -4.62751 -31.1121
lfingers 7.12502
lthumb 21.1513 -2.24593
rfemur -23.7515 3.23606 22.9215
rtibia 49.7347
rfoot -21.7479 -21.3512
rtoes -1.27663
lfemur -22.8559 -8.54264 -19.5726
ltibia 48.5718
lfoot -24.6796 -12.4633
ltoes -16.6446
